<?xml version="1.0" standalone="no"?>
<!DOCTYPE svg PUBLIC "-//W3C//DTD SVG 20010904//EN"
 "http://www.w3.org/TR/2001/REC-SVG-20010904/DTD/svg10.dtd">
<svg version="1.0" xmlns="http://www.w3.org/2000/svg"
 width="4000.000000pt" height="4000.000000pt" viewBox="0 0 4000.000000 4000.000000"
 preserveAspectRatio="xMidYMid meet">
<metadata>
Created by potrace 1.11, written by Peter Selinger 2001-2013
</metadata>
<g transform="translate(0.000000,4000.000000) scale(0.100000,-0.100000)"
fill="#000000" stroke="none">
<path d="M669 38189 c-5 -3 44 -57 109 -121 109 -108 2900 -2908 4368 -4383
l642 -644 608 -1 c335 0 2030 -2 3767 -4 1737 -2 3161 -6 3164 -10 7 -7 7
-11535 0 -11543 -4 -3 -2754 -6 -6112 -6 -3358 0 -6105 -1 -6105 -3 0 -2 1161
-1165 2579 -2584 l2579 -2579 3531 3 c3216 2 3531 1 3532 -13 0 -9 0 -2018 -1
-4466 l-1 -4450 253 -257 c139 -142 461 -468 714 -725 254 -257 538 -545 630
-640 93 -94 386 -391 650 -660 265 -268 562 -570 660 -670 99 -100 393 -398
654 -663 261 -265 558 -567 660 -670 102 -104 394 -401 650 -660 256 -259 500
-507 543 -550 42 -43 78 -76 78 -72 1 4 2 8187 3 18185 1 11466 -3 18181 -8
18185 -13 7 -18135 9 -18147 1z"/>
<path d="M18988 38192 l-27 -3 -1 -5322 c0 -2927 -1 -11094 -3 -18149 -1
-7055 1 -12829 4 -12832 4 -5 906 897 4969 4972 l526 527 -2 4658 -2 4657 496
0 497 -1 78 -112 c43 -62 87 -123 97 -137 10 -14 106 -150 214 -302 108 -153
232 -329 276 -390 44 -62 85 -120 90 -128 6 -8 44 -62 85 -120 41 -58 80 -113
87 -123 7 -11 31 -44 54 -75 22 -32 82 -115 132 -187 50 -71 95 -134 100 -140
4 -5 65 -91 134 -190 70 -99 242 -342 382 -540 140 -198 260 -367 266 -375 21
-31 299 -422 450 -635 157 -221 304 -430 396 -560 27 -38 52 -74 57 -80 16
-20 98 -136 312 -440 121 -170 251 -355 290 -410 39 -55 161 -226 270 -380
289 -408 296 -418 563 -795 135 -190 265 -374 290 -410 25 -36 60 -85 78 -110
18 -25 130 -182 248 -350 119 -168 219 -309 223 -315 5 -5 254 -356 553 -779
300 -423 593 -837 652 -920 59 -83 133 -188 165 -234 31 -46 60 -85 63 -87 4
-2 1197 -7 2651 -10 1454 -3 2911 -7 3237 -8 325 -1 592 1 592 5 0 3 -129 183
-287 400 -157 216 -302 416 -322 443 -20 28 -49 68 -66 91 -16 22 -39 53 -50
68 -11 16 -38 52 -60 82 -22 29 -60 81 -85 116 -25 34 -61 84 -80 110 -19 26
-60 82 -90 124 -30 42 -85 117 -122 168 -37 50 -77 106 -90 124 -13 18 -28 39
-33 45 -6 7 -43 57 -82 112 -40 55 -76 105 -80 110 -4 6 -159 217 -343 470
-184 253 -438 602 -564 775 -126 173 -270 371 -320 440 -50 69 -95 130 -99
135 -5 6 -73 100 -153 210 -79 110 -155 214 -167 230 -13 17 -124 169 -248
339 -410 563 -670 921 -689 946 -10 14 -103 142 -207 285 -264 363 -620 852
-657 901 -17 23 -38 52 -46 64 -16 23 -115 159 -127 175 -14 17 -297 405 -328
449 -16 24 -81 112 -142 197 -152 208 -424 581 -446 610 -9 13 -40 56 -68 94
-28 39 -59 81 -69 95 -10 14 -89 122 -175 240 -86 118 -165 226 -175 240 -10
14 -130 178 -265 365 -136 187 -264 363 -284 390 -90 120 -221 303 -221 307 0
3 19 8 43 12 23 4 116 25 207 47 91 22 172 42 180 44 220 48 805 230 1136 353
480 179 1068 450 1397 644 26 15 50 28 52 28 7 0 311 184 435 263 175 113 460
308 530 364 8 7 76 58 150 114 74 57 137 105 140 109 3 3 28 23 55 45 28 22
77 63 110 91 33 28 73 62 89 75 34 28 27 22 141 124 253 226 579 552 785 785
36 41 72 81 80 90 8 8 53 60 99 115 46 55 93 111 105 125 12 14 39 47 61 75
22 27 46 56 52 65 114 141 379 501 449 610 16 25 31 47 34 50 13 11 223 345
303 480 250 424 496 920 648 1310 17 41 36 89 43 105 23 50 178 477 182 500 1
6 14 46 29 90 60 182 196 672 229 830 3 11 19 85 36 165 61 284 130 688 155
905 3 28 8 61 10 75 4 25 10 76 21 180 3 30 7 69 9 85 2 17 7 73 10 125 4 52
8 102 10 110 2 8 7 62 10 120 4 58 8 128 10 155 24 350 24 1137 0 1500 -23
337 -25 356 -50 603 -7 69 -25 213 -29 242 -3 14 -7 50 -10 80 -4 30 -8 66
-10 80 -3 14 -9 57 -15 95 -11 70 -16 100 -27 165 -3 19 -8 49 -11 65 -9 63
-55 304 -73 385 -10 47 -21 96 -24 110 -27 136 -124 516 -171 670 -15 47 -35
114 -45 150 -38 128 -150 453 -223 640 -227 585 -517 1157 -854 1682 -161 252
-464 676 -558 782 -6 6 -26 31 -45 56 -40 52 -66 83 -95 116 -12 12 -32 37
-45 55 -14 18 -30 37 -36 43 -5 6 -59 67 -120 136 -202 230 -492 526 -723 740
-63 58 -123 114 -135 125 -12 11 -50 45 -86 75 -36 30 -69 60 -75 66 -5 6 -37
33 -70 60 -33 27 -69 57 -80 66 -271 230 -754 560 -1140 780 -333 189 -624
336 -970 488 -22 10 -62 28 -90 40 -192 86 -600 241 -925 351 -239 81 -725
229 -831 254 -10 2 -79 20 -155 40 -77 20 -146 39 -154 40 -8 2 -55 13 -105
25 -49 12 -97 23 -105 25 -8 2 -98 22 -200 45 -251 56 -359 79 -395 86 -16 2
-61 11 -100 19 -74 15 -105 20 -170 31 -22 3 -43 8 -46 10 -4 2 -31 6 -60 10
-30 3 -57 8 -60 10 -6 3 -121 23 -174 30 -16 2 -52 8 -80 14 -27 5 -67 12 -87
15 -88 12 -116 17 -168 25 -30 6 -73 12 -95 15 -40 5 -99 13 -145 20 -14 2
-81 11 -150 20 -69 9 -136 18 -150 20 -14 2 -50 6 -80 10 -30 3 -73 8 -95 11
-22 3 -51 7 -65 9 -14 2 -54 6 -90 10 -36 4 -76 8 -90 10 -14 2 -59 7 -100 10
-41 3 -86 8 -100 10 -14 2 -56 7 -95 10 -38 3 -88 7 -110 10 -37 4 -109 11
-230 20 -27 2 -77 6 -110 9 -33 3 -96 8 -140 11 -44 3 -102 8 -130 10 -27 2
-102 7 -165 10 -63 3 -133 8 -155 10 -22 2 -101 7 -175 11 -74 3 -164 8 -200
9 -68 3 -327 14 -490 20 -350 13 -1309 18 -4220 19 -1818 0 -3317 0 -3332 -2z
m8227 -5175 c55 -4 143 -9 195 -12 52 -2 129 -7 170 -10 41 -3 109 -8 150 -10
41 -3 93 -8 115 -10 22 -2 80 -7 128 -10 48 -4 96 -8 105 -10 9 -1 53 -6 97
-9 44 -4 87 -9 95 -11 8 -2 44 -7 80 -10 36 -4 76 -8 90 -10 14 -2 48 -6 75
-9 58 -8 119 -16 155 -21 14 -2 72 -11 130 -20 58 -8 116 -17 130 -20 14 -3
52 -10 85 -15 33 -5 70 -12 81 -14 12 -2 38 -7 58 -10 92 -15 478 -100 641
-141 332 -85 664 -188 910 -285 11 -4 38 -15 60 -23 434 -171 864 -396 1209
-634 122 -83 346 -256 431 -332 177 -159 352 -336 465 -471 30 -36 57 -67 61
-70 11 -10 156 -206 214 -289 234 -338 463 -815 585 -1221 12 -41 28 -93 35
-115 21 -66 69 -256 81 -319 2 -16 6 -32 8 -35 2 -3 7 -22 10 -41 3 -19 14
-82 25 -140 23 -122 41 -242 56 -370 3 -25 7 -60 9 -78 4 -29 9 -81 21 -222
24 -276 24 -969 0 -1170 -2 -19 -6 -74 -10 -122 -3 -47 -8 -97 -10 -110 -2
-12 -7 -52 -9 -88 -3 -36 -8 -74 -10 -86 -2 -11 -7 -45 -10 -75 -3 -30 -8 -67
-11 -84 -69 -397 -108 -570 -204 -903 -69 -236 -266 -710 -381 -912 -54 -95
-185 -316 -190 -320 -4 -3 -19 -25 -34 -50 -15 -25 -37 -58 -49 -75 -136 -183
-185 -246 -268 -345 -105 -126 -341 -367 -459 -471 -439 -387 -959 -710 -1535
-953 -88 -38 -173 -74 -190 -81 -98 -43 -471 -168 -720 -243 -356 -107 -935
-229 -1405 -297 -45 -7 -60 -9 -154 -21 -27 -3 -58 -7 -68 -9 -11 -2 -47 -7
-81 -10 -34 -3 -73 -8 -87 -10 -23 -4 -108 -13 -190 -20 -19 -1 -62 -5 -95 -9
-88 -8 -160 -15 -250 -21 -44 -4 -100 -8 -125 -10 -39 -4 -150 -10 -355 -20
-264 -14 -695 -19 -1585 -19 l-1035 -1 -3 5773 -2 5774 1332 -5 c733 -2 1378
-7 1433 -10z"/>
</g>
</svg>
